<svg xmlns="http://www.w3.org/2000/svg" viewBox="0 0 320 240" role="img" aria-labelledby="t d"><title id="t">Email and Meetings pickleball mascot</title><desc id="d">A friendly KPC pickleball mascot beside an envelope and calendar.</desc><rect width="320" height="240" rx="28" fill="#f7fbfd"/><g stroke="#07184d" stroke-width="7" stroke-linecap="round" stroke-linejoin="round"><circle cx="105" cy="111" r="55" fill="#E9DF46"/><circle cx="86" cy="91" r="7" fill="#07184d"/><circle cx="126" cy="86" r="7" fill="#07184d"/><circle cx="72" cy="120" r="7" fill="#07184d"/><circle cx="139" cy="126" r="7" fill="#07184d"/><circle cx="100" cy="143" r="7" fill="#07184d"/><circle cx="91" cy="108" r="4" fill="#07184d" stroke="none"/><circle cx="117" cy="108" r="4" fill="#07184d" stroke="none"/><path d="M91 124c8 8 18 8 26 0" fill="none" stroke-width="5"/><path d="M62 141 39 164M149 132l28 14" fill="none"/><path d="M84 164 74 211M126 164l12 47" fill="none"/><path d="M61 211h27M126 211h27" fill="none"/><rect x="180" y="51" width="102" height="70" rx="12" fill="#fff"/><path d="m184 59 47 36 47-36" fill="none"/><rect x="177" y="139" width="108" height="66" rx="12" fill="#fff"/><path d="M177 160h108M201 135v16M259 135v16" fill="none"/><path d="M198 179h20M232 179h20" stroke="#8EC753"/></g></svg>