<svg xmlns="http://www.w3.org/2000/svg" viewBox="0 0 320 240" role="img" aria-labelledby="t d"><title id="t">Start Here pickleball mascot</title><desc id="d">A friendly KPC pickleball mascot waves while holding a paddle.</desc><rect width="320" height="240" rx="28" fill="#f7fbfd"/><g stroke="#07184d" stroke-width="7" stroke-linecap="round" stroke-linejoin="round"><circle cx="142" cy="104" r="58" fill="#E9DF46"/><circle cx="119" cy="85" r="7" fill="#07184d"/><circle cx="160" cy="81" r="7" fill="#07184d"/><circle cx="102" cy="114" r="7" fill="#07184d"/><circle cx="177" cy="120" r="7" fill="#07184d"/><circle cx="139" cy="139" r="7" fill="#07184d"/><circle cx="125" cy="102" r="4" fill="#07184d" stroke="none"/><circle cx="153" cy="102" r="4" fill="#07184d" stroke="none"/><path d="M126 119c9 9 20 9 29 0" fill="none" stroke-width="5"/><path d="M93 130 62 103" fill="none"/><path d="M62 103 43 79M62 103 37 101M62 103 48 125" fill="none"/><path d="M193 117 228 104" fill="none"/><ellipse cx="252" cy="94" rx="24" ry="31" fill="#01AEF0" transform="rotate(16 252 94)"/><path d="M233 116 217 144" fill="none"/><path d="M118 160 104 211M160 160l17 51" fill="none"/><path d="M89 211h31M164 211h31" fill="none"/><path d="M93 146h98" stroke="#8EC753" stroke-width="12"/></g></svg>