<svg xmlns="http://www.w3.org/2000/svg" viewBox="0 0 320 240" role="img" aria-labelledby="t d"><title id="t">Staying Safe KPC character</title><desc id="d">Friendly pickleball player protecting a bag with a shield and lock.</desc><rect width="320" height="240" rx="28" fill="#f7fbfd"/><g stroke="#07184d" stroke-width="8" stroke-linecap="round" stroke-linejoin="round"><circle cx="104" cy="62" r="28" fill="#f4c7a1"/><path d="M80 98h48l12 72H68z" fill="#01AEF0"/><path d="M88 170 76 222M123 170l13 52" fill="none"/><path d="M78 118 48 145M131 116l30 22" fill="none"/><path d="M204 55 263 78v45c0 40-25 72-59 87-34-15-59-47-59-87V78z" fill="#8EC753"/><rect x="185" y="113" width="38" height="38" rx="7" fill="#fff"/><path d="M193 113v-11c0-15 22-15 22 0v11" fill="none"/><circle cx="96" cy="62" r="3" fill="#07184d" stroke="none"/><circle cx="112" cy="62" r="3" fill="#07184d" stroke="none"/><path d="M96 76c6 5 10 5 16 0" fill="none" stroke-width="4"/></g></svg>